<svg xmlns="http://www.w3.org/2000/svg" viewBox="0 0 437.5 437.5"><defs><linearGradient id="b" y2="1"><stop stop-color="#ffffaf" stop-opacity=".541" offset="0"/><stop stop-color="#0000a2" stop-opacity=".447" offset="1"/></linearGradient><linearGradient id="a" x1=".521" x2=".572" y1=".08" y2="1.166"><stop stop-color="#fff" offset="0"/><stop stop-color="#955d97" offset="1"/></linearGradient><linearGradient id="c" y2="1"><stop stop-color="#ffff9f" stop-opacity=".961" offset="0"/><stop stop-opacity=".459" offset="1"/></linearGradient></defs><path d="M208.03 107.55c-6.553 5.242 4.666 252.84 5.897 273.15 15.176 0 140.86 2.937 158.55 6.038 29.659-84.939 31.421-260.5 19.679-283.12-11.46-2.874-170.37-2.646-184.13 3.931z" fill="url(#a)" fill-rule="evenodd" stroke="#000" stroke-width="10"/><path d="M270.31 40.055c1.02 0 123.98 54.798 120.54 60.941-20.984-1.122-161.62-1.311-175.61-.655 19.42-22.762 46.844-51.839 55.07-60.286z" fill="#d00" fill-rule="evenodd"/><path d="M339.74 73.159c3.226-9.737 3.236-35.408 1.966-42.932 11.578 1.182 11.139.089 19.657.885-2.353 5.562-.655 42.637-.655 49.571-8.159-3.298-10.964-5.312-20.968-7.524z" fill="#baffff" fill-rule="evenodd" stroke="#000" stroke-width="8.219"/><path d="M74.003 177.16C55 188.645 60.518 289.49 86.279 382.1c5.561 0 37.15-.596 67.736-.828 27.772-.21 54.717-.12 60.604.991 1.495-16.09-8.482-194.89-8.967-202.56-8.013-2.163-114.64-7.484-131.65-2.548z" fill="url(#a)" fill-rule="evenodd" stroke="#000" stroke-width="7.255"/><path d="M163.33 126.3c-.681 0-76.625 41.246-80.453 45.869 14.006-.845 110.36.324 119.7.817-1.822-11.235-33.759-40.329-39.249-46.687z" fill="#d00" fill-rule="evenodd"/><path d="M118.904 150.348c-2.255-6.499-2.262-22.155-1.374-27.177-8.096.789-7.789.06-13.745.59 1.645 3.713.916 26.095.916 30.723 5.705-2.202 7.208-2.659 14.203-4.136z" fill="#e9f57f" fill-rule="evenodd" stroke="#000" stroke-width="5.614"/><path d="M160.85 318.54v61.596h32.763V318.54H160.85z" fill="#7f5400" fill-rule="evenodd"/><path d="M97.946 298.89v29.487h38.006V298.89H97.946zM155.61 242.53v36.04h39.316v-36.04H155.61zM99.257 241.22v36.696h37.35V241.22h-37.35zM246.69 156.04v56.354h43.903V156.04H246.69zM249.31 241.22v38.006h42.593V241.22H249.31zM338.43 240.57v38.661h30.798V240.57H338.43z" fill="url(#b)" fill-rule="evenodd" stroke="#000" stroke-width="5"/><path d="M295.18 301.51v78.632h36.695V301.51H295.18z" fill="#856100" fill-rule="evenodd"/><path d="M331.22 161.94v53.732h39.972V161.94H331.22z" fill="url(#b)" fill-rule="evenodd" stroke="#000" stroke-width="5"/><path d="M162.21 317.87v61.596h32.763V317.87H162.21zM293.83 302.18v78.632h36.695V302.18H293.83z" fill="url(#c)" fill-rule="evenodd" stroke="#000" stroke-width="5"/><path d="M271.06 40.056c1.017 0 120.27 55.322 119.44 62.252-20.906-1.146-166.4.17-180.35.84 19.348-23.252 52.713-54.464 60.908-63.092z" fill="url(#b)" fill-rule="evenodd" stroke="#000" stroke-linejoin="round" stroke-width="9.75"/><path d="M162.37 127.26c-.681 0-76.625 41.246-80.453 45.869 14.006-.844 117.57 6.877 120.36-1.148-1.167-7.303-34.414-38.364-39.904-44.722z" fill="url(#b)" fill-rule="evenodd" stroke="#000" stroke-linejoin="round" stroke-width="6.85"/></svg>