<svg xmlns="http://www.w3.org/2000/svg" viewBox="0 0 500 500" height="50" width="50"><path d="M197.93 37.08c7.97 1.61 15.46 7.28 21.5 12.51 9.12 8.2 17.95 16.77 27.34 24.65 5.82 4.77 11.54 8.86 19.33 9.39 15.626 1.177 33.22-5.373 46.97-.69 3.81 1.38 7.15 3.91 8 8.09.95 5.22-1.6 10.43-4.31 14.72a82.457 82.457 0 0 1-15.79 17.86c-16.28-1.07-32.79.27-48.93 2.49-31.85 4.95-62.98 15.53-91.56 30.39-5.56 3.11-10.92 5.27-15.69 9.53-4.51-.55-8.92-.68-13.46-.58-7.55-.68-14.96-4.26-20.89-8.88-10.314-9.754-13.968-16.523-10.65-29.42 4.48-7.18 11.36-14.59 19.91-16.54 11.27-3.19 23.58-8.45 31.31-17.59 7.14-11.14 12.258-21.763 17.51-32.73 3.48-6.71 7.53-14.47 13.46-19.3 4.53-3.71 10.2-5.15 15.95-3.9z" fill="#113f93"/><path d="M197.02 66.96c1.64.87 2.7 2.75 3.87 4.15 2.68 3.68 5.34 7.34 8.21 10.88 5.59-.52 11.14-1.3 16.72-1.85-2.75 5.36-5.94 10.46-8.71 15.82 4.12 4.12 8.55 7.89 12.73 11.96-8.25-.77-16.44-2.08-24.7-2.81-3.6 4.3-6.41 9.13-10.08 13.37-1.71-6.08-2.56-12.32-4.12-18.44-6.28-2.42-12.7-4.43-19.06-6.63 1.55-1.14 3.53-1.74 5.38-2.2 5.26-1.33 10.51-2.68 15.68-4.33 1.51-6.61 2.37-13.37 4.08-19.92z" fill="#d5d347"/><path d="M300.97 123.61c10.89.4 21.84 1.61 32.52 3.8 3.26.77 6.86 1.56 9.76 3.29 1.42.95 2.71 2.3 1.75 4.09-1.42 2.43-4.75 3.83-7.19 5.02-9.57 4.13-20.08 6.61-30.17 9.16-29.18 6.3-58.66 11.02-88.33 14.32-26.766 1.738-50.908 5.705-74.52 2.73 4.77-4.26 10.13-6.42 15.69-9.53 28.58-14.86 59.71-25.44 91.56-30.39 16.14-2.22 32.65-3.56 48.93-2.49z" fill="#203457"/><path d="M307.64 148.97c12.41 7.78 24.14 15.4 34.53 25.88 4.51 4.8 9.02 10.4 11.42 16.59 1.97 4.98 2 10.42.59 15.55-5.77 11.1-17.03 16.15-28.35 19.85-9.73 3.32-19.72 4.33-29.74 6.24 1.42 6 3.54 11.78 5.1 17.74 5.52 20.48 10.12 41.44 12.4 62.55.19 1.41.52 2.78.97 4.13-5.86.87-11.66 1.02-17.56 1.38-53.31 3.05-106.75 2.78-160.02-.73-5.2-.36-10.35-.57-15.49-1.42.59-9.812 1.633-20.651 1.39-29.44-6.17-.47-11.94-1.28-16.98-5.18-5.09-3.77-8.64-9.7-8.9-16.09-.28-4.23 1.18-8.09 2.75-11.93 4.16-5.38 9.05-8.66 15.48-10.77 6.93-.81 13.76-.19 19.69 3.77 4.69 2.89 6.98 7.18 9.68 11.77 9.05-19.51 11.71-42.55 11.11-63.85-.24-9.42-1.38-18.74-2.81-28.04 22.06.76 44.49-1.25 66.41-3.68 29.67-3.3 59.15-8.02 88.33-14.32z" fill="#ecc3a8"/><path d="M144.79 166.02c2.71.34 5.38.72 8.11.95 1.43 9.3 2.57 18.62 2.81 28.04.6 21.3-2.06 44.34-11.11 63.85-2.7-4.59-4.99-8.88-9.68-11.77-5.93-3.96-12.76-4.58-19.69-3.77-3.35-26.67 2.37-54.74 16.1-77.88 4.54-.1 8.95.03 13.46.58z" fill="#70441a"/><path d="M249.41 168.4c11.41-1.8 23.18 5.31 26.93 16.25 3.12 8 1.31 17.12-3.93 23.79-4.42 5.63-11.34 9.03-18.45 9.44-10.63.35-20.81-6.42-24.3-16.53-3.47-8.88-.83-19.21 5.8-25.89 3.77-3.78 8.71-6.16 13.95-7.06zm-61.99 14.03c9.98-1.63 21.04 3.04 26.53 11.62 3.71 5.84 5.08 13.04 2.87 19.71-2.53 8.47-9.58 14.79-18.03 17.08-12.58 3.8-27.53-3.03-32.08-15.56-3.32-8.17-1.21-17.52 4.48-24.07 4.18-4.8 10.01-7.71 16.23-8.78z" fill="#fff"/><path d="M256.42 186.38c6.08-1.64 12.3 4.17 11.4 10.33-.77 4.26-3.85 7.34-8.11 8.11-5.9.83-11.38-4.7-10.52-10.6.69-3.82 3.44-6.89 7.23-7.84zm-61.98 14.02c3.92-1.27 8.6 1.47 9.9 5.29 1.8 4.13-.91 9.22-5.03 10.65-4.13 1.8-9.22-.91-10.65-5.03-1.9-4.45 1.24-9.75 5.78-10.91z" fill="#203457"/><path d="M407.25 204.14c11.5-.31 23.05-.13 34.56-.08 6.76 8.28 13.33 16.76 20.1 25.02 1.31 1.65 2.83 3.33 3.75 5.23.38 3.18-.16 6.5-.24 9.69-.37 5.66-.21 11.34-.47 17 .16 2.4-2.53 4.31-3.95 6.01-5.17 5.13-9.86 10.92-15.34 15.7-10.512-1.074-28.778 4.34-36.79-1.56-7.23-5.83-14.55-11.54-21.82-17.32-.11-10.24-.08-20.48 0-30.72 6.87-9.55 13.23-19.49 20.2-28.97z" fill="#cd311c"/><path d="M417.2 233.93c2.63-.15 6.21 4.01 5.97 6.66-1.05.25-2.11.51-3.16.78.07 2.79-.01 5.57-.06 8.36 2.85 1.63 2.94 2.14 3.23 5.37-2.31-.4-5.52-.09-6.87-2.43-.56-3.1-.09-6.4-.46-9.53-.37-1.48-1.34-2.75-1.83-4.2.31-1.57 1.84-4.17 3.18-5.01zM406.95 236c3.44.1 4.65 2.31 6.05 5.03-2.59-.18-5.17-.7-7.77-.8-.7.79-1.27 1.69-1.71 2.7 2.56.74 5.59 1.27 7.88 2.65 3.41 3.27.92 8.82-3.51 9.34-3.83.58-5.88-.76-8.1-3.66 3.35-.16 6.58-.17 9.8-1.25-2.71-3.07-6.81-1.44-8.8-4.79-2.41-4.4 1.08-9.84 6.16-9.22zm22.33.26c3.44-.91 7.38.29 8.41 3.99.55 3.1.55 7.4 0 10.5-1.38 5.42-10.02 5.76-12.15.74-.92-3.28-.68-7.04-.39-10.41.23-2.31 1.94-4.17 4.13-4.82zm17.86-.06c2.89-.35 5.44 2.07 5.71 4.88.29 3.37.53 7.13-.39 10.41-1.67 3.61-4.92 3.53-8.37 3.25-.04 2.09-.16 4.18-.24 6.27-1.29.26-2.55.59-3.81 1-.08-8.3-.06-16.59-.01-24.89 2.38-.23 4.73-.66 7.11-.92z" fill="#fff"/><path d="M430.32 240.12c1.56-.05 2.47-.36 3.35 1.23.69 3.29.64 6.84-.76 9.94-1.51-.51-3.6-.39-3.76-2.44-.16-2.5-.91-6.9 1.17-8.73zm18.35 1.22c.57 2.47.57 5.86-.01 8.32-.55 1.19-2.47 1.28-3.59 1.64-1.32-3.12-1.42-6.69-.78-9.98.76-1.78 3.66-1.78 4.38.02z" fill="#cd311c"/><path d="M283 280.02c2.63-.07 5.26.01 7.89.06v1.87c-14.29.6-28.6.2-42.88.97-16.22.31-32.43.57-48.63 1.56-3.53.3-7.06.44-10.6.49.23-1.42.97-2.09 2.22-2.02 13.35-1.32 26.92-1.04 40.31-1.64 17.22-.85 34.48-.37 51.69-1.29z" fill="#c28861"/><path d="M422 283.02c4.67-.04 9.33-.03 14 0-.06 10.42.13 20.85-.13 31.26-4.34-1.6-9.12-2.5-13.76-2.12-.24-9.71-.07-19.43-.11-29.14z" fill="#70441a"/><path d="M422.11 312.16c4.64-.38 9.42.52 13.76 2.12 4.82 2.78 9 6.33 11.39 11.45 2.7 5.41 3.22 11.37 1.85 17.24-2.58 7.73-7.78 13.88-15.64 16.51-12.21 4.56-26.24-2.28-30.77-14.37-1.88-5.35-1.97-10.52-.55-16 1.35-3.35 3.19-6.63 5.63-9.32 3.79-4.14 8.99-6.28 14.33-7.63z" fill="#ecc3a8"/><path d="M121.49 316.73c58.818 4.769 124.04 4.972 175.51 2.15 5.9-.36 11.7-.51 17.56-1.38 1.73 3.33 1.34 6.9 1.51 10.58 28.68.56 57.4.41 86.08 1.03-1.42 5.48-1.33 10.65.55 16-28.84-.57-57.71-.55-86.56-.96-.52 8.29-1.48 16.33-4.98 23.97-18.03 1.21-36.09 2.59-54.16 3.03-39.82 1.71-80.02.83-119.8-1.54-5.56-.41-10.99-1.1-16.59-.68-1.07-7.22-.37-14.83-.71-22.2-8 3.47-13.63 9.98-17.59 17.58-3.57 6.7-5.36 13.76-7.37 21.01-4.72-2.23-10.08-3.27-15.26-3.7 2.13-11.06 6.15-22.11 12.47-31.48 6.66-9.91 16.22-17.03 27.65-20.52.4-4.49.28-8.61 1.69-12.89z" fill="#113f93"/><path d="M297.01 325.34c.34 5.42.34 10.82-1.71 15.94-2.36 5.84-6.55 10.02-11.42 13.83-5.75-3.11-10.57-7.59-13.5-13.49-2.46-4.9-2.68-10.05-2.44-15.43 6.64 1.1 13.15 2.3 19.87 1.48 3.2-.41 6.13-1.42 9.2-2.33z" fill="#d5d347"/><path d="M137.2 369.61c39.78 2.37 79.98 3.25 119.8 1.54 18.07-.44 36.13-1.82 54.16-3.03-2.5 5.09-5.86 9.51-11.2 11.83-8.78 3.8-19.52 4.72-28.93 5.93 12.187 21.34 20.463 48.007 22.29 69.3-1.09 1.29-1.59 1.66-3.32 1.74-5.64.26-11.26.44-16.87 1.14-4.26-21.698-10.85-55.058-25.41-69.93-2.61-.86-5.96-.03-8.72-.16-18.47.08-36.93 0-55.4.03 4.456 23.9-5.293 45.968-9.54 66.18-7.075 3.863-16.783 5.037-23.92 5.02 7.373-23.473 19.068-50.586 11.78-73.07-10.976-1.604-27.82-.593-35.7-7.34-3.02-2.58-4.64-6.07-5.61-9.86 5.6-.42 11.03.27 16.59.68z" fill="#0d2f6e"/><path d="M79.68 381.62c5.18.43 10.54 1.47 15.26 3.7 5 3.46 9.03 8.07 10.8 13.99 2.6 7.61.68 15.99-4.13 22.28-4.37 5.65-11.53 9.06-18.63 9.32-6.4.1-13.17-2.66-17.71-7.18-2.95-2.9-4.73-6.9-6.6-10.56-2.39-10.13 1.69-21.33 10.5-27 3.32-1.84 6.94-3.29 10.51-4.55z" fill="#ecc3a8"/><path d="M184.96 452.28c11.67-.89 24.11.32 35.02 4.75 5.59 2.29 11.63 5.94 14.6 11.4 1.76 3.2 1.23 6.31 1.33 9.82-3 1.16-6.72.72-9.91.78-25.68-.04-51.38-.03-77.06-.01-2.12-6.1.68-13.43 1.2-19.82 6.33.07 12.32-1.36 18.48-2.54 5.254-2.58 10.882-3.853 16.34-4.38zm146.58 1.33c8.75 1.83 19.35 5.54 24.88 12.97 2.79 3.54 2.54 7.31 2.49 11.57-3.99 1.31-7.76.8-11.91.86-25.01-.01-50.05-.03-75.06.01-2.3-6.49 1.13-14 1.19-20.96 5.61-.7 11.23-.88 16.87-1.14 3.874-1.74 7.67-3.208 11.95-3.94 9.78-1.48 19.88-1.31 29.59.63z" fill="#2a2f38"/></svg>